# xmcd
#
# Track frame offsets: 
#        150
#        13955
#        33960
#        53047
#        95022
#        120295
#        139185
#        171165
#        190567
#        208852
#        238360
#        251077
#        262180
#        280242
#
# Disc length: 4035 seconds
#
# Revision: 0
# Processed by: cddbd v1.5.2PL0 Copyright (c) Steve Scherf et al.
# Submitted via: ExactAudioCopy v0.99pb5
#
DISCID=d00fc10e
DTITLE=Various Artist - Tuff City Fat Joints Vol.1
DYEAR=1994
DGENRE=Hip-Hop
TTITLE0=The 45 King - The 900 Number
TTITLE1=Priority One - I Can't Go For That
TTITLE2=M.C. La Kim - We Got The Funk
TTITLE3=Jimmy Spicer - (The Adventure Of) Super Rhymes
TTITLE4=Cold Crush Brothers - Fresh Wild Fly And Bold
TTITLE5=Spoonie Gee - This Is The Place To Be (Mixes With "Roy C's The
TTITLE5=me)
TTITLE6=Funkmaster Wizard Wiz - Crack It Up
TTITLE7=Freddy B and Mighty Mike Masters - Coolin'On The Avenue
TTITLE8=Captain G. Whiz - All The Way Live
TTITLE9=The Mighty Maestro - The One Man Band
TTITLE10=The45King - Catchin' A 'Tude
TTITLE11=M.C. La Kim - The Posse Is Large
TTITLE12=Funkmaster Wizard Wiz - Grand Concourse&138th
TTITLE13=Hot Day Dante - Hot Day's Turn
EXTD=
EXTT0=
EXTT1=
EXTT2=
EXTT3=
EXTT4=
EXTT5=
EXTT6=
EXTT7=
EXTT8=
EXTT9=
EXTT10=
EXTT11=
EXTT12=
EXTT13=
PLAYORDER=
